# xmcd
#
# Track frame offsets:
#	150
#	11232
#	21235
#	33940
#	45087
#	54207
#	68945
#	79177
#	90487
#	100307
#
# Disc length: 1491 seconds
#
# Revision: 2
# Processed by: cddbd v1.5.2PL0 Copyright (c) Steve Scherf et al.
# Submitted via: EZCDAudioConverter 6.0.7.1
#
DISCID=6f05d10a
DTITLE=Marty Robbins - The Legendary Marty Robbins
DYEAR=1992
DGENRE=Country
TTITLE0=Singing the blues
TTITLE1=I can't help it (if i'm still in love with you)
TTITLE2=It's a sin
TTITLE3=Kaw-liga
TTITLE4=Ruby ann
TTITLE5=She thinks I still care
TTITLE6=Rainbows
TTITLE7=A white sport coat (and a pink carnation)
TTITLE8=Knee deep in the blues
TTITLE9=That's all right
EXTD=
EXTT0=
EXTT1=
EXTT2=
EXTT3=
EXTT4=
EXTT5=
EXTT6=
EXTT7=
EXTT8=
EXTT9=
PLAYORDER=
